<?xml version="1.0" standalone="no"?><!DOCTYPE svg PUBLIC "-//W3C//DTD SVG 1.1//EN" "http://www.w3.org/Graphics/SVG/1.1/DTD/svg11.dtd"><svg t="1578471123582" class="icon" viewBox="0 0 1024 1024" version="1.1" xmlns="http://www.w3.org/2000/svg" p-id="13452" xmlns:xlink="http://www.w3.org/1999/xlink" width="200" height="200"><defs><style type="text/css"></style></defs><path d="M366.230032 706.550974l292.079218 0c10.753925 0 19.47147-8.719592 19.47147-19.47147 0-10.753925-8.717546-19.472494-19.47147-19.472494L366.230032 667.60701c-10.753925 0-19.47147 8.717546-19.47147 19.472494C346.758562 697.832406 355.476107 706.550974 366.230032 706.550974z" p-id="13453" fill="#1296db"></path><path d="M522.005888 433.94425c64.524572 0 116.831892-52.30732 116.831892-116.831892s-52.30732-116.831892-116.831892-116.831892-116.831892 52.30732-116.831892 116.831892S457.481316 433.94425 522.005888 433.94425zM522.005888 239.225453c43.015699 0 77.887928 34.870182 77.887928 77.887928 0 43.015699-34.872229 77.887928-77.887928 77.887928-43.015699 0-77.887928-34.872229-77.887928-77.887928C444.11796 274.095635 478.990189 239.225453 522.005888 239.225453z" p-id="13454" fill="#1296db"></path><path d="M697.253214 745.494938 346.758562 745.494938c-10.753925 0-19.47147 8.717546-19.47147 19.47147s8.717546 19.47147 19.47147 19.47147l350.494653 0c10.753925 0 19.47147-8.717546 19.47147-19.47147S708.007139 745.494938 697.253214 745.494938z" p-id="13455" fill="#1296db"></path><path d="M716.724685 63.978127 327.286068 63.978127c-107.539248 0-194.718797 87.177502-194.718797 194.718797l0 506.270509c0 107.541295 87.179548 194.718797 194.718797 194.718797l389.438617 0c107.539248 0 194.718797-87.177502 194.718797-194.718797l0-506.270509C911.444505 151.155628 824.264956 63.978127 716.724685 63.978127zM872.500541 742.956116c0 98.1893-78.459956 177.786149-175.247326 177.786149L346.758562 920.742265c-96.785324 0-175.247326-79.596849-175.247326-177.786149l0-462.247876c0-98.1893 78.462003-177.786149 175.247326-177.786149l350.494653 0c96.78737 0 175.247326 79.596849 175.247326 177.786149L872.500541 742.956116z" p-id="13456" fill="#1296db"></path><path d="M443.272709 464.86754c0 3.624551-1.876744 6.964622-4.919033 8.934486-32.737612 21.189601-54.624085 57.646931-54.624085 99.54825 0 5.699816 0.474814 11.273764 1.336438 16.721847 1.908466 12.063757-7.414877 22.974247-19.629059 22.974247l0 0c-9.875928 0-18.21178-7.254218-19.681248-17.019629-1.113357-7.399527-1.722224-14.962783-1.722224-22.676465 0-45.960775 19.629059-87.247086 50.845015-116.234281 1.967818-1.827625 4.550643-2.852978 7.235798-2.852978l30.553876 0C438.524568 454.263018 443.272709 459.010135 443.272709 464.86754L443.272709 464.86754z" p-id="13457" fill="#1296db"></path><path d="M598.494956 464.525756c0-5.856381 4.748141-10.604522 10.604522-10.604522l30.553876 0c2.686179 0 5.26798 1.025353 7.235798 2.852978 31.215956 28.987195 50.845015 70.273507 50.845015 116.234281 0 7.713682-0.607844 15.275915-1.722224 22.676465-1.469468 9.765411-9.80532 17.019629-19.681248 17.019629l0 0c-12.214183 0-21.537526-10.910491-19.629059-22.974247 0.861624-5.447059 1.336438-11.021008 1.336438-16.721847 0-41.901319-21.886473-78.358649-54.624085-99.54825C600.3717 471.490378 598.494956 468.150306 598.494956 464.525756L598.494956 464.525756z" p-id="13458" fill="#1296db"></path></svg>