<?xml version="1.0" standalone="no"?><!DOCTYPE svg PUBLIC "-//W3C//DTD SVG 1.1//EN" "http://www.w3.org/Graphics/SVG/1.1/DTD/svg11.dtd"><svg t="1578471095211" class="icon" viewBox="0 0 1024 1024" version="1.1" xmlns="http://www.w3.org/2000/svg" p-id="12831" xmlns:xlink="http://www.w3.org/1999/xlink" width="200" height="200"><defs><style type="text/css"></style></defs><path d="M514.2 273.4c34.5 0 66.7 13.8 89.7 36.8 23 23 36.8 55.2 36.8 89.7s-13.8 66.7-36.8 89.7c-16.1 16.1-36.8 27.6-59.8 32.2v52.9H597c9.2 0 16.1 2.3 23 9.2s9.2 13.8 9.2 23-4.6 16.1-9.2 23c-6.9 6.9-13.8 9.2-23 9.2h-52.9v87.4c0 9.2-4.6 16.1-9.2 23-6.9 6.9-13.8 9.2-23 9.2s-16.1-2.3-23-9.2c-6.9-6.9-9.2-13.8-9.2-23V521.7c-23-4.6-41.4-16.1-57.5-32.2-23-23-36.8-55.2-36.8-89.7s13.8-66.7 36.8-89.7c25.3-22.9 57.5-36.7 92-36.7z m75.9 124.1c0-20.7-6.9-39.1-23-52.9-29.9-29.9-75.9-29.9-105.7 0-13.8 13.8-23 32.2-23 52.9 0 20.7 6.9 39.1 23 52.9 13.8 13.8 32.2 20.7 52.9 20.7 41.3 2.3 75.8-32.2 75.8-73.6z" p-id="12832" fill="#1296db"></path><path d="M510.8 64l353.6 110.3c11.6 4.6 20.9 16.1 20.9 29.9l-4.7 441.4c0 2.3-14 75.9-86.1 144.8-65.1 62.1-234.9 147.1-269.8 163.2l-9.3 4.6c-4.7 2.3-9.3 2.3-14 0l-7-4.6c-2.3-2.3-9.3-6.9-18.6-11.5-58.2-29.9-193.1-101.2-248.9-154-72.1-69-86.1-142.5-86.1-144.8v-4.6l-2.3-434.5c0-13.8 9.3-25.3 20.9-29.9L510.8 64z m314.1 570.1l4.7-402.3c0-6.9-2.3-11.5-9.3-13.8l-297.7-94.3c-4.7-2.3-11.6-2.3-18.6 0L206.1 218c-4.7 2.3-9.3 6.9-9.3 13.8l2.3 402.3c2.3 11.5 16.3 64.4 69.8 114.9 48.8 48.3 183.8 119.5 234.9 144.8 4.7 2.3 9.3 2.3 14 0 48.8-25.3 186.1-94.3 237.3-144.8 51.1-52.8 67.4-103.4 69.8-114.9z" p-id="12833" fill="#1296db"></path></svg>