<?xml version="1.0" standalone="no"?><!DOCTYPE svg PUBLIC "-//W3C//DTD SVG 1.1//EN" "http://www.w3.org/Graphics/SVG/1.1/DTD/svg11.dtd"><svg t="1578470474955" class="icon" viewBox="0 0 1024 1024" version="1.1" xmlns="http://www.w3.org/2000/svg" p-id="8858" xmlns:xlink="http://www.w3.org/1999/xlink" width="200" height="200"><defs><style type="text/css"></style></defs><path d="M820.117333 435.093333V205.738667a81.429333 81.429333 0 0 0-81.450666-80.96h-81.450667V68.117333h-46.144v56.661334H277.184V68.117333H231.04v56.661334H149.589333c-43.434667 0-81.450667 35.072-81.450666 80.96v561.28a81.429333 81.429333 0 0 0 81.450666 80.96h304.042667c51.584 64.768 130.304 107.946667 222.613333 107.946666 154.730667 0 279.616-124.138667 279.616-280.64a278.549333 278.549333 0 0 0-135.744-240.192zM114.304 203.029333c0-18.88 13.568-35.072 32.576-35.072h81.450667v29.674667h48.853333V167.957333h333.909333v29.674667h46.144V167.957333h81.450667c19.008 0 35.285333 16.192 35.285333 35.072v80.96H114.304V203.029333z m32.576 593.664c-19.008 0-35.285333-16.192-35.285333-35.072V329.856h659.669333v80.96c-29.866667-10.794667-65.152-18.88-100.437333-18.88-154.730667 0-282.325333 124.117333-282.325334 280.64 0 45.866667 10.858667 86.357333 29.866667 124.138667H146.88z m526.634667 107.925334c-130.304 0-233.450667-105.237333-233.450667-232.064s105.877333-232.064 233.450667-232.064c127.594667 0 236.181333 105.237333 236.181333 232.064s-105.877333 232.064-236.181333 232.064z m38.016-232.064v-148.416H665.386667v194.282666h190.037333v-45.866666h-143.893333z" p-id="8859" fill="#1296db"></path></svg>