<?xml version="1.0" standalone="no"?><!DOCTYPE svg PUBLIC "-//W3C//DTD SVG 1.1//EN" "http://www.w3.org/Graphics/SVG/1.1/DTD/svg11.dtd"><svg t="1578470280545" class="icon" viewBox="0 0 1024 1024" version="1.1" xmlns="http://www.w3.org/2000/svg" p-id="3728" xmlns:xlink="http://www.w3.org/1999/xlink" width="200" height="200"><defs><style type="text/css"></style></defs><path d="M511.82 533.88c-115.23 0-209-93.75-209-209s93.75-209 209-209 209 93.75 209 209-93.82 209-209 209z m0-381c-94.85 0-172 77.17-172 172s77.17 172 172 172 172-77.16 172-172-77.15-171.99-172-171.99z" fill="#0897EA" p-id="3729"></path><path d="M511.82 437.89a113.1 113.1 0 0 1-113-113 18.48 18.48 0 1 1 37 0 76 76 0 0 0 152.05 0 18.48 18.48 0 1 1 37 0 113.1 113.1 0 0 1-113.05 113z" fill="#FF4056" p-id="3730"></path><path d="M831 908.06a18.48 18.48 0 0 1-18.48-18.48V672.95a80.16 80.16 0 0 0-80.07-80.07h-440.9a80.16 80.16 0 0 0-80.07 80.07v216.63a18.48 18.48 0 0 1-37 0V672.95a117.16 117.16 0 0 1 117-117h440.9a117.16 117.16 0 0 1 117 117v216.63A18.48 18.48 0 0 1 831 908.06z" fill="#0897EA" p-id="3731"></path></svg>