<?xml version="1.0" standalone="no"?><!DOCTYPE svg PUBLIC "-//W3C//DTD SVG 1.1//EN" "http://www.w3.org/Graphics/SVG/1.1/DTD/svg11.dtd"><svg t="1578470317133" class="icon" viewBox="0 0 1024 1024" version="1.1" xmlns="http://www.w3.org/2000/svg" p-id="4756" xmlns:xlink="http://www.w3.org/1999/xlink" width="200" height="200"><defs><style type="text/css"></style></defs><path d="M800.897 407.915h-2.262c-16.712 0-30.429 4.802-43.64 12.977-11.561-33.719-40.968-58.008-78.842-58.008-16.714 0-32.678 4.801-45.886 12.976-11.563-33.717-40.983-58.008-78.86-58.008-14.772 0-28.5 3.702-40.651 10.204V241.3c0-47.255-35.742-85.561-83.338-85.561-47.6 0-86.183 38.306-86.183 85.56v332.165l-52.358-52.143c-33.657-33.413-93.226-28.655-121.882 0-28.656 28.657-47.45 86.336-6.415 127.371l240.683 239.105c4.965 4.928 10.424 9.04 16.165 12.516 43.884 35.798 94.168 56.991 200.499 56.991 242.907 0 265.402-131.049 265.402-292.706V493.475c0.001-47.253-34.833-85.56-82.432-85.56z m37.07 256.68c0 136.787-0.653 247.673-220.043 247.673-92.937 0-148.734-20.723-191.003-62.685L199.07 623.215c-20.16-20.16-15.089-45.934 1.414-62.437 16.502-16.503 46.792-17.074 62.734-1.247l74.418 73.977 48.959 48.67V250.307c0-22.384 18.278-40.528 40.825-40.528 22.544 0 37.978 18.145 37.978 40.528v274.692h0.457a22.44 22.44 0 0 0-0.457 4.504c0 12.433 10.154 22.515 22.68 22.515 12.523 0 22.678-10.08 22.678-22.515 0-1.544-0.159-3.049-0.458-4.504h0.458V412.419c0-22.384 16.311-40.53 38.858-40.53 0 0 39.944-0.54 39.944 40.53v148.602h0.458a22.462 22.462 0 0 0-0.458 4.504c0 12.435 10.155 22.517 22.679 22.517 12.525 0 22.68-10.08 22.68-22.517a22.38 22.38 0 0 0-0.458-4.504h0.457v-103.57c0-22.384 16.051-40.53 38.599-40.53 0 0 40.774 2.538 40.774 40.53v130.59h0.458a22.447 22.447 0 0 0-0.458 4.504c0 12.436 10.154 22.516 22.679 22.516 12.526 0 22.11-10.08 22.11-22.516 0-1.542-0.15-3.048-0.432-4.503h0.432V498.88c0-22.382 16.82-40.529 39.365-40.529 0 0 39.525-1.598 39.525 40.53v165.713zM307.56 368.867v-75.666c-7.201-16.142-11.29-33.975-11.29-52.793 0-71.704 58.127-129.83 129.83-129.83 71.704 0 129.832 58.126 129.832 129.83 0 9.794-1.158 19.304-3.236 28.467 16.33 0.636 31.063 7.416 41.789 18.299 4.157-14.905 6.604-30.524 6.604-46.766 0-96.642-78.346-174.989-174.99-174.989S251.11 143.766 251.11 240.41c0.001 50.848 21.82 96.485 56.45 128.458z" p-id="4757" fill="#1296db"></path></svg>